#!OML:ASF F:\VICON\USERDATA\INSTALL\rory3\rory3.ASF
:FULLY-SPECIFIED
:DEGREES
97
root 0.7870345132428292 17.71243660331158 42.624832169552526 -1.636067669324168 -2.5344304320793714 -3.9562849765681722
lfemur -19.731419409053196 -3.346907938121871 -16.31630431929334
ltibia 23.154528849116875
lfoot -4.82654804128074 -2.8099283330960234
ltoes -5.1427122064517246
rfemur -0.39333643938901375 0.6823787886785535 27.335679589090795
rtibia 41.60364173924079
rfoot 2.249636419131668 -7.442862431869477
rtoes 8.247299582031175
lowerback 9.7086063676421 1.881635739095395 2.6275498633012853
upperback -0.2223138605119784 3.095153120807783 1.31877774308231
thorax -5.7126236786440225 1.4541177512446934 -1.4038269908101608
lowerneck -16.396916256629886 -3.4277557686160547 -1.6773911417328309
upperneck 21.685500959203203 -4.947435612572957 2.049486262957464
head 9.673762325022295 -2.2030226638923294 0.2355660735599821
lclavicle 3.0075872319169874e-16 5.64972380071653e-17
lhumerus -35.63659427015911 11.86686387230372 78.1515982375713
lradius 21.185100904218732
lwrist 4.069108801974317
lhand -28.683555983572735 17.08949151966099
lfingers 7.125020000000001
lthumb -2.377934818185965 46.30170827022021
rclavicle 2.9796496986024373e-16 5.556345863528946e-17
rhumerus -24.938372903197642 -16.11789907575477 -80.38655834092143
rradius 34.07971527471808
rwrist 0.4691878641018685
rhand -18.757336418245995 24.11589725422841
rfingers 7.125020000000001
rthumb 7.474284553465636 -5.757783758366036
98
root 0.8513537426777325 17.779402399411666 44.01000972958013 -1.96760623922361 -2.0478255618453898 -3.6989445990201086
lfemur -17.641381896685978 -2.745636230087973 -17.258093444507914
ltibia 24.426919709670987
lfoot -6.12836741087576 -3.553201390313439
ltoes -3.2635790944415515
rfemur -3.9474470556778876 -1.0545645997311364 25.719606266557214
rtibia 48.09531719700759
rfoot 5.696070630581173 -8.27833737463549
rtoes 12.20697436996576
lowerback 9.622118375482032 1.6980840585421586 2.836410284766747
upperback -0.3989566436120292 2.8852488189384013 1.270503891941418
thorax -5.754773512961255 1.3554707546184637 -1.5506115252913697
lowerneck -16.209823192548825 -3.499053277130878 -1.7721889785591036
upperneck 21.744787437333443 -5.125311402610223 2.238246906380833
head 9.677365473110873 -2.26796310291222 0.2974317395800363
lclavicle 2.9934591695536217e-16 5.5483041397276176e-17
lhumerus -35.8269046973315 12.38479247854394 77.60691863133123
lradius 20.889944179204562
lwrist 3.5221597130014652
lhand -27.80976490138651 16.95705775177393
lfingers 7.125020000000001
lthumb -1.3149381088172 46.426437544139965
rclavicle 2.972117629836619e-16 5.512045230437985e-17
rhumerus -26.473735123246215 -17.53104576320959 -80.04783169765206
rradius 33.09367880485135
rwrist 1.0055370904241574
rhand -18.638791232410473 24.038398599288424
rfingers 7.125020000000001
rthumb 7.5832706662747125 -5.741273132349766
99
root 0.9088764654814258 17.85931359712332 44.157842165842204 -2.9294753672248306 -2.666272714739002 -2.188483168011219
lfemur -14.477358896126843 -2.279935182303645 -19.597463816651686
ltibia 24.77343169514421
lfoot -7.770191941803835 -3.3145207594861277
ltoes -2.654835467833
rfemur -9.046498886184139 -1.285825417957068 23.004910218983476
rtibia 55.533763723700254
rfoot 7.199571908126772 -8.742464109081393
rtoes 14.775360644507
lowerback 10.280588108215351 1.7953418662087464 1.3152463456684893
upperback -0.2841087109145142 2.748535444409878 0.8651130563896579
thorax -6.0235199536367965 1.3334674989429829 -0.9852628893756952
lowerneck -16.180675375914046 -3.476834807225431 -1.7878473559430232
upperneck 21.74131071114856 -5.085136064156372 2.3570547598956484
head 9.66899813364535 -2.24167154755376 0.3573134196910829
lclavicle 2.9835404893440986e-16 5.477046878061136e-17
lhumerus -35.88664695645235 11.640270978262814 77.94357067838357
lradius 21.79970492419795
lwrist 5.93727056155297
lhand -28.075548265657048 16.23388537454069
lfingers 7.125020000000001
lthumb -1.4662935484941293 45.79234434741137
rclavicle 2.969741161495824e-16 5.494642341266822e-17
rhumerus -27.980046698578036 -18.569208074197846 -79.739411484058
rradius 32.217452851040726
rwrist 1.570700287266217
rhand -18.33971908748237 23.630771454394228
rfingers 7.125020000000001
rthumb 7.951459885521888 -5.929506510679027
100
root 0.9343405731899532 17.906006777743052 45.09152664496735 -3.410639655014961 -3.210910389691546 -1.5639695277290093
lfemur -11.92779783979569 -2.222531497422674 -20.656065274454097
ltibia 25.48863146429644
lfoot -9.087882213922596 -2.2236883550247883
ltoes -0.5863168518488022
rfemur -13.708566891637144 -1.3476864806848878 22.029289202576052
rtibia 61.47802622850686
rfoot 4.566848797822817 -10.04371579039498
rtoes 11.79374557457923
lowerback 10.737362039139782 1.7421493266320809 0.38264861642207215
upperback -0.06813019156243486 2.5654431841446286 0.75637144120413
thorax -6.1013847663741 1.2400985961752466 -0.4673811443774125
lowerneck -16.209674958759006 -3.4106312512406984 -1.9252006489339744
upperneck 21.500003342003065 -4.952562050017676 2.5633761646717725
head 9.570324443291948 -2.1781790032290034 0.4773917843572153
lclavicle 2.9984492429585483e-16 5.584045555837503e-17
lhumerus -35.20102951328931 10.665509400392015 78.42463854192987
lradius 23.024666707899705
lwrist 6.576229188696463
lhand -27.263588238397045 19.991293894302185
lfingers 7.125020000000001
lthumb -0.681668801897084 50.07174367434202
rclavicle 2.9910491879947185e-16 5.648406249390639e-17
rhumerus -28.566386015797896 -19.335575295503073 -79.74606329043228
rradius 30.8734180322599
rwrist 2.693925794020805
rhand -18.04038796624033 23.00091854462879
rfingers 7.125020000000001
rthumb 8.244645404424455 -6.694919780521869
101
root 0.9594160130435713 17.93578019065997 45.57309579960773 -3.721098474425637 -2.423065351684166 -0.790565319745459
lfemur -9.051074876736443 -2.3302889494415466 -21.72570042088294
ltibia 25.383688029596243
lfoot -10.55635826926931 -1.9183098607553928
ltoes -1.8264632317497371
rfemur -18.04617953752448 -3.008989509484244 21.075006046213193
rtibia 65.23161399779625
rfoot 1.0853578440812397 -11.014757713467011
rtoes 8.053303461110804
lowerback 10.790405350909353 1.2262234175878406 -0.4692518719585155
upperback 0.17775161665699357 1.7312432693326483 0.6825386952933736
thorax -6.002475354228688 0.858911787667395 0.08309136997373878
lowerneck -16.157390919908146 -3.242696246338509 -1.9431871320414742
upperneck 21.371101380681694 -4.652189972987238 2.5356036796369015
head 9.502943098553962 -2.067054180706625 0.5346269902964806
lclavicle 2.983849943578851e-16 5.4792036249901684e-17
lhumerus -34.354907008898316 9.452764719878546 78.91668270260124
lradius 23.870438998914274
lwrist 7.952303566676125
lhand -28.176264027980103 18.471585438833078
lfingers 7.125020000000001
lthumb -1.6159673273545496 48.360749707817526
rclavicle 2.986261125767431e-16 5.639953732979463e-17
rhumerus -28.833090775785376 -20.03365247296575 -79.60110314945643
rradius 29.398873625130626
rwrist 3.818729531714406
rhand -17.73177594266246 22.38600956364785
rfingers 7.125020000000001
rthumb 8.541890567619575 -7.349098173994878
